<svg width="33" height="31" viewBox="0 0 33 31" fill="none" xmlns="http://www.w3.org/2000/svg">
<path d="M15.072 30.492C12.12 30.492 9.52333 29.836 7.282 28.524C5.04067 27.212 3.305 25.4353 2.075 23.194C0.872333 20.9253 0.271 18.4107 0.271 15.65C0.271 12.6433 0.913333 10.033 2.198 7.819C3.51 5.57767 5.30033 3.86933 7.569 2.694C9.83767 1.49133 12.407 0.889998 15.277 0.889998C16.5617 0.889998 17.614 0.985666 18.434 1.177C19.2813 1.341 20.0877 1.57333 20.853 1.874C21.3723 2.09267 21.7823 2.202 22.083 2.202C22.329 2.202 22.6023 2.079 22.903 1.833C23.067 1.72366 23.2447 1.628 23.436 1.546C23.6547 1.43667 23.887 1.382 24.133 1.382H25.076C25.5133 1.382 25.8413 1.464 26.06 1.628C26.2787 1.76467 26.4563 1.997 26.593 2.325L29.668 9.828C29.75 10.0193 29.791 10.197 29.791 10.361C29.791 10.7437 29.5997 11.0443 29.217 11.263L28.11 11.878C27.8367 12.0147 27.6043 12.083 27.413 12.083C27.1123 12.083 26.839 11.96 26.593 11.714C24.8437 9.96467 23.3677 8.62533 22.165 7.696C20.9897 6.73933 19.828 6.04233 18.68 5.605C17.5593 5.16767 16.3157 4.949 14.949 4.949C12.981 4.949 11.3957 5.646 10.193 7.04C8.99033 8.40667 8.389 10.3063 8.389 12.739C8.389 15.0623 8.82633 17.167 9.701 19.053C10.603 20.939 11.792 22.4287 13.268 23.522C14.7713 24.588 16.3567 25.121 18.024 25.121C19.09 25.121 19.91 24.9023 20.484 24.465C21.058 24.0277 21.345 23.4127 21.345 22.62V22.087C21.345 21.513 21.222 21.0483 20.976 20.693C20.73 20.3103 20.32 19.955 19.746 19.627L19.172 19.299C18.8713 19.135 18.6527 18.9573 18.516 18.766C18.4067 18.5473 18.352 18.2877 18.352 17.987V16.511C18.352 16.1557 18.4477 15.896 18.639 15.732C18.8303 15.5407 19.09 15.445 19.418 15.445H30.98C31.3353 15.445 31.595 15.5407 31.759 15.732C31.9503 15.9233 32.046 16.183 32.046 16.511V17.987C32.046 18.6157 31.7727 19.053 31.226 19.299L30.529 19.627C29.545 20.0917 29.053 20.8707 29.053 21.964V28.934C29.053 29.2893 28.9573 29.5627 28.766 29.754C28.5747 29.918 28.315 30 27.987 30H26.716C26.142 30 25.7183 29.959 25.445 29.877C25.1717 29.7677 24.912 29.5763 24.666 29.303L24.461 29.057C24.215 28.7563 23.8597 28.606 23.395 28.606C23.149 28.606 22.7117 28.7427 22.083 29.016C21.1263 29.4533 20.115 29.8087 19.049 30.082C18.0103 30.3553 16.6847 30.492 15.072 30.492Z" fill="url(#paint0_linear_49_289)"/>
<defs>
<linearGradient id="paint0_linear_49_289" x1="-4.77778" y1="-5.21429" x2="33.8244" y2="34.484" gradientUnits="userSpaceOnUse">
<stop stop-color="#FF9595"/>
<stop offset="1" stop-color="#FF9B6D"/>
</linearGradient>
</defs>
</svg>
