<svg width="32" height="32" viewBox="0 0 32 32" fill="none" xmlns="http://www.w3.org/2000/svg">
<mask id="mask0_23_128" style="mask-type:luminance" maskUnits="userSpaceOnUse" x="2" y="2" width="27" height="27">
<path d="M28.7099 2.28571H2.28577V28.8705H28.7099V2.28571Z" fill="white"/>
</mask>
<g mask="url(#mask0_23_128)">
<path d="M23.0045 20.2321C15.759 20.2321 11.1251 15.692 11.1251 8.43303C11.1251 6.93303 11.4867 4.79017 11.9689 3.67856C12.0893 3.37053 12.1162 3.18303 12.1162 3.0491C12.1162 2.68749 11.8483 2.28571 11.3259 2.28571C11.1786 2.28571 10.8572 2.32589 10.5626 2.43303C5.6072 4.41517 2.28577 9.74552 2.28577 15.3571C2.28577 23.2321 8.28577 28.8571 16.134 28.8571C21.9063 28.8571 26.9019 25.3616 28.5626 20.9955C28.6831 20.6875 28.7099 20.366 28.7099 20.2455C28.7099 19.7499 28.2947 19.4152 27.9197 19.4152C27.7455 19.4152 27.5982 19.4553 27.3438 19.5358C26.3125 19.8705 24.6518 20.2321 23.0045 20.2321Z" fill="#111111" fill-opacity="0.8"/>
</g>
</svg>
