<svg width="32" height="32" viewBox="0 0 32 32" fill="none" xmlns="http://www.w3.org/2000/svg">
<mask id="mask0_23_140" style="mask-type:luminance" maskUnits="userSpaceOnUse" x="1" y="1" width="30" height="30">
<path d="M30.1116 1.14285H1.14282V30.2187H30.1116V1.14285Z" fill="white"/>
</mask>
<g mask="url(#mask0_23_140)">
<path d="M15.6339 6.35267C16.2634 6.35267 16.7857 5.83035 16.7857 5.18749V2.30803C16.7857 1.66517 16.2634 1.14285 15.6339 1.14285C14.9911 1.14285 14.4688 1.66517 14.4688 2.30803V5.18749C14.4688 5.83035 14.9911 6.35267 15.6339 6.35267ZM22.1964 9.09821C22.6517 9.54018 23.3883 9.55357 23.8437 9.09821L25.8928 7.0491C26.3348 6.60714 26.3348 5.85714 25.8928 5.40178C25.4508 4.95981 24.7143 4.95981 24.2589 5.40178L22.1964 7.46428C21.7545 7.91964 21.7545 8.65625 22.1964 9.09821ZM24.9152 15.6741C24.9152 16.3035 25.4508 16.8259 26.0803 16.8259H28.9597C29.5892 16.8259 30.1116 16.3035 30.1116 15.6741C30.1116 15.0447 29.5892 14.5089 28.9597 14.5089H26.0803C25.4508 14.5089 24.9152 15.0447 24.9152 15.6741ZM22.1964 22.2501C21.7545 22.7054 21.7545 23.4419 22.1964 23.8839L24.2589 25.9598C24.7143 26.3883 25.4508 26.375 25.8928 25.9464C26.3348 25.4911 26.3348 24.7545 25.8928 24.3125L23.8304 22.2501C23.3883 21.8215 22.6517 21.8215 22.1964 22.2501ZM15.6339 24.9955C14.9911 24.9955 14.4688 25.5178 14.4688 26.1473V29.0402C14.4688 29.6696 14.9911 30.192 15.6339 30.192C16.2634 30.192 16.7857 29.6696 16.7857 29.0402V26.1473C16.7857 25.5178 16.2634 24.9955 15.6339 24.9955ZM9.058 22.2501C8.60264 21.8215 7.85264 21.8215 7.41069 22.2501L5.36158 24.2991C4.91961 24.741 4.91961 25.4777 5.34818 25.933C5.79015 26.3616 6.54015 26.375 6.9955 25.9464L9.04461 23.8839C9.48657 23.4419 9.48657 22.7054 9.058 22.2501ZM6.33926 15.6741C6.33926 15.0447 5.80353 14.5089 5.17407 14.5089H2.29461C1.66514 14.5089 1.14282 15.0447 1.14282 15.6741C1.14282 16.3035 1.66514 16.8259 2.29461 16.8259H5.17407C5.80353 16.8259 6.33926 16.3035 6.33926 15.6741ZM9.04461 9.09821C9.48657 8.66964 9.48657 7.90625 9.058 7.46428L7.00889 5.40178C6.56693 4.97321 5.81693 4.95981 5.37496 5.40178C4.93301 5.85714 4.93301 6.60714 5.36158 7.03571L7.41069 9.09821C7.85264 9.54018 8.58925 9.54018 9.04461 9.09821Z" fill="#F5F5F5" fill-opacity="0.8"/>
<path d="M15.6206 22.5045C19.3438 22.5045 22.4375 19.4107 22.4375 15.6741C22.4375 11.9241 19.3438 8.83035 15.6206 8.83035C11.8974 8.83035 8.80359 11.9241 8.80359 15.6741C8.80359 19.4107 11.8974 22.5045 15.6206 22.5045Z" fill="#F5F5F5" fill-opacity="0.8"/>
</g>
</svg>
